<svg xmlns="http://www.w3.org/2000/svg" viewBox="0 0 2784 1680"><defs><style>.cls-1{fill:#f74700;}.cls-2{fill:#b53a25;}.cls-3{fill:#677662;}</style></defs><g id="Layer_1" data-name="Layer 1"><path class="cls-1" d="M2445.2,542.82l-.58-23.85-71.88-.46c4.49,80.87,4.49,110.07,4.49,246.63,26.95,11.68,56.6,23.81,68.28,32.35l56.16-62.44c-15.72-1.35-42.23-10.33-57.05-18.87,0-80.42,0-105.57.89-133Z"/><path class="cls-2" d="M1444.55,716.18l-67.38,49c26.95,11.68,54.36,23.81,66,32.35l56.16-62.44C1483.64,733.7,1459.38,724.72,1444.55,716.18Z"/><path class="cls-1" d="M927.44,570.63l44.68-61.09-.65-.46-119,53c4.49,53,4.49,98.38,4.49,189.13,30.1,9,78.61,27.85,117.69,46.27l52.57-62.44c-31-4.49-80-15.28-102.88-28.75,0-57.51,0-89.4,3.14-135.67Z"/><path class="cls-1" d="M692.78,735.63l-8.39-2.83h0c-24.71-6.29-49-14.37-69.18-26.5,0-57.51,1-89.51,4.13-135.78l.17,0,44.25-60.5c-.47-.32-.94-.65-1.38-1l-119,53c4.49,53,4.49,98.38,4.49,189.13,25.16,6.29,60.64,27.85,93.44,46.27,0,0,40.43-48.07,50.32-59.75Z"/><path class="cls-1" d="M1775.65,744.48l-75-10.34c-27.4-6.73-55.7-14.82-77.71-27.84,0-57.06,0-89,3.14-134.33l.31.06,52.7-62.95-128,53c4.49,53,4.49,98.38,4.49,189.13,25.15,6.29,73.22,32.79,92.09,46.27l128-53"/><path class="cls-1" d="M2306.08,646.07l-55.11,0h-54.8c.45-25.6,1.35-48.06,3.14-75.46l.33.1,43.75-61.61,0,0-119,53c4.49,53,4.49,98.38,4.49,189.13,30.09,9,78.61,27.85,117.69,46.27l52.57-62.44c-31-4.49-80-15.28-102.88-28.75V665.86l57,22.46c19.15-16.47,29-25.44,52.83-42.23"/><path class="cls-2" d="M332.61,519l111,13.47,15.28-76.37L324.46,442.63l8.13,76.75C332.6,519.24,332.61,519.11,332.61,519Z"/><path class="cls-2" d="M473.67,827.14c-4.49-80.87-4.49-138.82-4.49-229.56-25.16-6.29-77.71-32.79-96.58-46.27l-42.44,47.23v19.33c23.73,7.17,47.89,15.69,67.15,28.68,0,71.88,0,108.71-4.5,189.57Z"/><path class="cls-2" d="M2377,765.6c26.81,11.61,56.92,23.41,68.52,31.89l56.16-62.44c-14.86-1.28-41.18-10.89-56.34-19Z"/><path class="cls-2" d="M1532.14,1166.5l-15.07-69.15-78,13.3c-15.07-39-21.72-61.17-31.47-100.17,22.16-13.74,70-44.33,90.42-61.17,35.91,8.86,72.26,19.5,101.51,19.5l-18.62,72.25c-28.36-6.21-69.14-21.72-95.74-33.24l25.27,74.46,67.81-20.83c12,35.9,20,69.15,27.93,111.7-28.37,19.06-54.52,45.66-70.48,59.84-47-8.86-72.69-13.74-121.89-13.74,7.09-31.47,19.94-56.74,31.91-75.8Z"/><path class="cls-2" d="M1743.57,958.17h39l-6.21,43.88h-34.13c-.89,37.24-.89,78.46-.89,150.71,14.63,8.42,38.57,17.29,54.08,18.62L1740,1233c-11.52-8.42-38.56-20.39-65.15-31.91,0-82.45,0-144.95-.89-199H1652.7c8-19.5,12-24.38,20-43.88-.45-18.17-1.33-35.9-2.22-53.19l75.35,8.87C1744.9,930.25,1744,944.43,1743.57,958.17Z"/><path class="cls-1" d="M1674.87,1201.08c0-82.45,0-144.95-.89-199H1652.7c8-19.5,12-24.38,20-43.88-.45-18.17-1.33-35.9-2.22-53.19l75.35,8.87c-.88,16.4-1.77,30.58-2.21,44.32h39l-6.21,43.88h-34.13c-.89,37.24-.89,78.46-.89,150.71"/><path class="cls-1" d="M1449.14,1108.93l69.68-29.22-8.39,2.57-25.27-74.46,10.2-56.39c-21.61,17.18-66.5,45.86-87.77,59.05,9.75,39,16.4,61.17,31.47,100.17Z"/><path class="cls-1" d="M1532.14,1166.5l-86.43-23c-12,19.06-24.82,44.33-31.92,75.8,49.21,0,74.92,4.88,121.9,13.74,15.75-14,41.42-40.06,69.36-59.06Z"/><path class="cls-1" d="M1357.84,979.72l-.91,104.67c-24.25,17.08-34.13,26.06-53.45,42.68l-57-22.46V1145c22.91,13.47,71.88,24.26,102.87,28.75l-52.56,62.44c-39.08-18.42-87.6-37.28-117.7-46.26,0-90.76,0-136.13-4.49-189.13l119-53C1312.47,961.3,1330,966.69,1357.84,979.72Zm-56.61,105.12V1030c-16.17-8.09-31-13.93-51.66-20.67-1.8,27.4-2.69,49.87-3.14,75.47Z"/><path class="cls-2" d="M1252.47,1009.37l-.07.94c19.18,6.35,33.42,12,48.83,19.73v54.8h55.07l.63-.45.91-104.67c-26.58-12.43-43.75-17.93-61.66-30.11Z"/><path class="cls-2" d="M1082.94,1267.87l.63-.34c-.88-90.42,0-148.4,2.66-245h23.94l19.06-44.33h-41.67l3.14-40.62c2.82-.94,3-15.08,3-15.08l61.59,30.17,35.35-58s-78.72-48.55-92.85-57.48c-11.53,8.43-53.65,31.7-80.25,43.23,1.33,22.61,2.67,72.94,3.55,97.76h-.44l-19.06,44.33h21.27c.26,7.74.49,15.16.72,22.36h-8.9c.9,54.81.9,189.5.9,273.05,27,11.68,54.36,23.81,66,32.34l56.16-62.44c-15.72-1.35-40-10.33-54.81-18.86Z"/><path class="cls-1" d="M1087.56,978.17,1090.7,942l7.07-104.86c-8.16,6-39.18,25-57.23,33.12V870l-29.47,11.56c.89,17.52,1.79,61.89,2.24,80.31-.28.28-.3,6.91-.18,16.3H982L963,1022.5h51.11c.33,12.71.6,22.36.6,22.36.9,54.81.9,189.5.9,273.05l67.38-49v-1.08l.63-.34c-.88-90.42,0-148.4,2.66-245h39.92l19.06-44.33Z"/><path class="cls-1" d="M332.59,519.38l-8.13-76.75-.38,0c-20.67,17.08-45.82,36.84-68.28,50.77,4.49,80.86,2.69,210.24-1.8,295.15h80.41c-2.13-40.55-3.69-87.3-4.25-134V572.87Z"/><path class="cls-1" d="M1168.91,566.25c1.82-51.91,2-91.31,3.84-123.66l-76.37,9c4.49,80.86,3.59,200.35,3.59,336.93h68.28V667.21Z"/><path class="cls-2" d="M1296.28,658.22c-15.27-6.73-32.34-14.82-46.26-22l36.83-13.93V541.88c-34.14-11.24-45.82-18-70.53-32.8,0,0-31.3,34.51-47.06,52.24l-.11,12c21.57,4,31,5.84,50.32,11.23v23.81c0,4.48-30.82,29.06-51,47l-.1,10.65,1,.79c26,9.41,45.69,17.48,59.58,23.75,0,22.46-.45,80.41-.45,99.28l67.83,8.08C1294,763.35,1294,697.76,1296.28,658.22Z"/><path class="cls-2" d="M927.44,570.63c28.31,9.43,46.28,16.62,70.54,31.44l37.73-61.1c-27.53-12.87-45-18.3-63.58-31.43Z"/><path class="cls-2" d="M754.92,716.18c-.74-80.33-.46-99.28-.46-160.83-24.58-6.15-71-31.58-90.69-45.31l-44.31,60.59.06.22c27.61,4.94,45,12.5,67.57,22.24,0,40.88-1.11,77.25-2.7,139.71l8.39,2.83-1,2.35c17.5,28.64,41.65,51.44,52.86,59.51l56.15-62.44C785.47,732.8,769.74,724.72,754.92,716.18Z"/><path class="cls-1" d="M1377.17,765.14c0-83.55,0-146.89-.9-201.7H1354.7c8.09-19.76,12.13-24.71,20.22-44.47-.45-18.42-1.35-36.39-2.24-53.92l76.36,9c-.89,16.62-1.79,31-2.24,44.93h39.52L1480,563.44h-34.59c-.9,37.74-.9,79.51-.9,152.74Z"/><path class="cls-2" d="M1626.15,572.28l4.4.54c26,4.86,52.41,11.35,73.22,20.27,0,42.22,0,75.47-3.15,141l75,10.34c-4.49-80.86-4.49-127.58-4.49-189.13-25.16-6.29-73.23-32.79-92.1-46.27Z"/><path class="cls-1" d="M1913.54,562.94c2.61-57.75,1.7-104.53,2.74-133.82l-71,22.46c1.34,80.86.44,238.1.44,299.64,25.16,6.29,73.23,32.79,92.1,46.27l119-53v-.14l-75.27-8.27v-.17c-28.16-4.94-45.64-12.56-68.48-22.42,0-22,0-80,.45-140.16Z"/><path class="cls-2" d="M2056.88,744.34c-4.48-52.94-4.48-98.32-4.48-189-25.16-6.29-60.65-27.85-93.44-46.27,0,0-30.72,36.37-45.2,53.7l0,10.58c25.56,6.28,50.22,14.81,71.3,26.91,0,57-1.06,89.94-3.41,135.8Z"/><path class="cls-2" d="M2199.42,571l2.88.92c19.18,6.34,32.84,11.21,48.25,18.91v54.8l55.5.42c.21-.15.95-.78,1.17-.93l.36-104.19c-26.58-12.42-46.09-19.94-64-32.12Z"/><path class="cls-2" d="M2472,510,2446,542.33l-.63.7v39.81l3.2,1.65a405.64,405.64,0,0,1,40.55,19.83L2543,542.77C2521.88,532.44,2494,520.76,2472,510Z"/><path class="cls-3" d="M572.28,1112.51l67.32-89.43,11.18-47.5c-19,6.6-37.34,17.53-53.86,27.43L573.8,964.14c23.38-6.6,39.38-12.95,62.25-21.59l62.24,36.08-25.15,70.11-50.81,54.37c23.88,0,48.27.25,70.37-3L680,1138.17H586.76Z"/><path class="cls-3" d="M865.2,973.8c0,34.8.26,93.74,2.8,139.47l-72.41,30c-10.67-7.62-37.85-22.61-52.08-26.17,0-51.31-.25-109.49-2.79-139.47l72.4-30C823.79,955.25,851,970.24,865.2,973.8Zm-39.63,133.63c1.78-37.09,1.53-88.41,1.53-112.29-12.45-5.34-28.46-9.15-44-11.94-1.78,26.42-1.53,76.21-1.53,108.48C794.07,1099.05,810.07,1103.62,825.57,1107.43Z"/><path class="cls-3" d="M1900.62,1112.51l67.32-89.43,11.18-47.5c-19,6.6-37.34,17.53-53.86,27.43l-23.11-38.87c23.37-6.6,39.37-12.95,62.24-21.59l62.24,36.08-25.15,70.11-50.81,54.37c23.88,0,48.27.25,70.37-3l-12.7,38.11H1915.1Z"/><path class="cls-3" d="M2082.27,1143.51c0-19.82-1.78-111-1.78-145.32l22.61-14.74h-34l6.61-35.82h45.73l-2.8,35.57c.25,55.64.76,130.84,2.8,155.23Z"/></g></svg>