<svg width="576" height="194" viewBox="0 0 576 194" fill="none" xmlns="http://www.w3.org/2000/svg">
<path fill-rule="evenodd" clip-rule="evenodd" d="M48.5081 180.99C94.8947 207.772 154.209 191.879 180.99 145.492C207.772 99.1053 191.879 39.7909 145.492 13.0096C99.1053 -13.7718 39.7909 2.12146 13.0096 48.5081C-13.7718 94.8947 2.12146 154.209 48.5081 180.99ZM28.4827 112.799C25.1187 130.375 25.9508 146.704 30.9233 159.491C12.3131 139.828 3.54295 112.832 6.69101 86.258C8.98285 90.3915 11.9346 94.6519 15.4423 98.9537C19.1545 103.506 23.529 108.154 28.4827 112.799ZM20.1401 95.1233C14.3946 88.0769 10.4879 81.4708 8.58001 75.7139C10.5777 67.4313 13.7824 59.2924 18.259 51.5388C24.6346 40.496 32.9768 31.2965 42.5879 24.1273C44.878 28.2537 47.8253 32.5064 51.3266 36.8004C53.4709 39.4302 55.8362 42.0916 58.4064 44.766C58.854 43.7751 59.4798 42.8632 60.2634 42.0796C60.9553 41.3877 61.7473 40.8188 62.6053 40.3871C60.2127 37.8889 58.0144 35.4106 56.0243 32.9699C52.5167 28.668 49.6944 24.5302 47.5938 20.6495C68.2412 7.31248 93.7707 2.72781 118.08 8.53057C101.097 11.1442 82.5484 22.162 66.3966 39.4214C66.495 39.4182 66.5937 39.4166 66.6926 39.4166L74.8785 39.4166C82.3285 32.1356 90.1662 26.2693 97.9643 22.0147C113.913 13.3134 128.827 11.7303 140.203 17.0793L133.102 29.3793C133.322 29.5609 133.533 29.7535 133.737 29.9567C135.308 31.5282 136.245 33.6158 136.382 35.8211L145.404 20.1945C155.244 27.5142 161.03 40.9799 161.457 58.6725C161.735 70.1512 159.713 83.0336 155.3 96.3076C149.249 94.4795 142.912 92.191 136.4 89.4576L136.4 96.0157C149.139 101.192 161.26 104.721 171.972 106.455C177.441 107.34 182.597 107.766 187.316 107.686C185.912 119.594 182.117 131.418 175.741 142.461C171.264 150.215 165.818 157.06 159.644 162.931C153.704 164.157 146.03 164.077 137.056 162.625C132.571 161.899 127.801 160.837 122.814 159.448C124.431 157.886 126.028 156.263 127.603 154.58C127.551 154.582 127.5 154.583 127.448 154.584C127.401 154.585 127.354 154.585 127.307 154.585L119.121 154.585C118.125 155.558 117.123 156.505 116.115 157.427C107.162 154.525 97.644 150.653 87.9078 145.86V152.596C95.7139 156.323 103.391 159.478 110.771 162.029C105.916 165.959 100.968 169.295 96.0361 171.986C80.5003 180.462 65.9453 182.183 54.6865 177.322L61.6831 165.203C61.1757 164.869 60.6996 164.481 60.2633 164.045C59.0643 162.846 58.2347 161.346 57.8479 159.723L49.3884 174.376C39.0679 167.198 32.9815 153.49 32.543 135.328C32.4073 129.711 32.8221 123.759 33.798 117.589C37.4436 120.75 41.3454 123.894 45.4773 126.99L45.4773 121.247C45.4773 120.645 45.5357 120.057 45.6472 119.488C41.9039 116.563 38.3847 113.611 35.1117 110.66C36.3373 105.102 38.0008 99.4103 40.1096 93.6645C38.5748 93.2563 37.1597 92.4493 36.0174 91.307C35.6336 90.9232 35.2877 90.5086 34.982 90.0691C32.9674 95.3781 31.3112 100.664 30.0119 105.869C26.3156 102.244 23.0112 98.6445 20.1401 95.1233ZM75.9208 185.47C102.253 191.755 130.017 185.852 151.457 169.839C146.732 169.921 141.566 169.495 136.087 168.608C130.288 167.67 124.076 166.205 117.577 164.238C104.038 175.939 89.4801 183.383 75.9208 185.47ZM172.94 100.471C178.419 101.358 183.414 101.733 187.824 101.612C189.051 77.0626 180.257 52.6612 163.077 34.51C169.602 51.2872 168.998 74.1646 161.14 97.953C165.246 99.0234 169.192 99.8646 172.94 100.471Z" fill="url(#paint0_linear_3_33)"/>
<path d="M54.1237 72.3689H42.0008L42 73.0784L42 84.4922L54.1237 84.4919L54.1237 72.3689H66.2467V120.861H54.1237L54.123 132.984L66.2467 132.984V157.23H78.3697V120.861H90.4926V108.738L114.739 108.738V145.107H126.862V132.984L138.984 132.984L138.985 120.861H151.108V108.738L138.985 108.738L138.985 120.861H126.862L126.862 36H114.739V48.123L102.616 48.123V60.2459H90.4926V72.3689L102.615 72.3691L102.616 60.2459H114.612L114.738 60.2462L114.738 72.1509L114.739 72.3689V96.6149H90.4927L90.4926 108.738L78.3697 108.738L78.3697 48.123H66.2467V60.2459H54.1237V72.3689Z" fill="#E5E1E6"/>
<path d="M212.924 0H227.378V21.5525H267.981V0H282.435V58.4758H267.981V35.5867H227.378V58.4758H212.924V0Z" fill="#E5E1E6"/>
<path d="M301.871 10.4421C302.762 7.43478 304.238 4.95652 306.299 3.00734C308.416 1.00243 311.312 0 314.988 0H332.449C336.181 0 339.161 1.00243 341.389 3.00734C343.616 4.95652 345.176 7.43478 346.067 10.4421L360.437 58.4758H344.396L340.469 44.4416H313.985L317.327 30.4074H336.543L332.031 14.0342H315.823L303.458 58.4758H287.418L301.871 10.4421Z" fill="#E5E1E6"/>
<path d="M364.577 10.4421C364.577 8.93845 364.856 7.54613 365.413 6.26527C365.97 4.98436 366.694 3.89836 367.585 3.00734C368.532 2.06059 369.618 1.33659 370.843 0.835347C372.124 0.27843 373.433 0 374.77 0H429.66V14.0342H379.031V44.4416H429.66V58.4758H375.355C373.851 58.4758 372.431 58.1973 371.094 57.6404C369.757 57.0835 368.615 56.3595 367.668 55.4684C366.722 54.5217 365.97 53.4357 365.413 52.2105C364.856 50.9296 364.577 49.6208 364.577 48.2842V10.4421Z" fill="#E5E1E6"/>
<path d="M437.21 0H451.664V22.8891H464.697L482.409 0H499.118L477.313 28.4025L503.212 58.4758H484.748L465.449 36.9233H451.664V58.4758H437.21V0Z" fill="#E5E1E6"/>
<path d="M238.072 81.4719H210V67.4377H280.43V81.4719H252.525V125.913H238.072V81.4719Z" fill="#E5E1E6"/>
<path fill-rule="evenodd" clip-rule="evenodd" d="M285.845 77.8798C285.845 76.3761 286.123 74.9839 286.68 73.703C287.237 72.4221 287.961 71.3361 288.852 70.445C289.799 69.4983 290.885 68.7743 292.111 68.2731C293.392 67.7162 294.7 67.4377 296.037 67.4377H345.58C347.084 67.4377 348.504 67.7162 349.841 68.2731C351.178 68.83 352.32 69.5818 353.266 70.5286C354.213 71.4196 354.965 72.5056 355.522 73.7865C356.079 75.0117 356.358 76.2926 356.358 77.6292V115.471C356.358 116.975 356.079 118.367 355.522 119.648C354.965 120.929 354.213 122.043 353.266 122.99C352.375 123.881 351.289 124.605 350.008 125.162C348.783 125.663 347.502 125.913 346.165 125.913H296.622C295.118 125.913 293.698 125.635 292.361 125.078C291.024 124.521 289.883 123.797 288.936 122.906C287.989 121.959 287.237 120.873 286.68 119.648C286.123 118.367 285.845 117.059 285.845 115.722V77.8798ZM341.904 111.879V81.4719H300.298V111.879H341.904Z" fill="#E5E1E6"/>
<path fill-rule="evenodd" clip-rule="evenodd" d="M363.862 77.8798C363.862 76.3761 364.141 74.9839 364.698 73.703C365.255 72.4221 365.979 71.3361 366.87 70.445C367.817 69.4983 368.903 68.7743 370.128 68.2731C371.41 67.7162 372.718 67.4377 374.055 67.4377H414.074C415.578 67.4377 416.97 67.7162 418.251 68.2731C419.532 68.83 420.618 69.5818 421.509 70.5286C422.456 71.4196 423.18 72.5056 423.682 73.7865C424.239 75.0117 424.517 76.2926 424.517 77.6292V89.8256C426.021 89.8256 427.358 90.104 428.527 90.6609C429.753 91.2179 430.783 91.9697 431.619 92.9165C432.454 93.8075 433.067 94.8935 433.457 96.1744C433.902 97.3996 434.125 98.6805 434.125 100.017V115.471C434.125 116.975 433.846 118.367 433.29 119.648C432.733 120.929 431.981 122.043 431.034 122.99C430.143 123.881 429.057 124.605 427.775 125.162C426.55 125.663 425.269 125.913 423.932 125.913H363.862V77.8798ZM419.671 111.879V102.941H378.316V111.879H419.671ZM410.064 89.8256V81.4719H378.316V89.8256H410.064Z" fill="#E5E1E6"/>
<path d="M440.781 77.8798C440.781 76.3761 441.059 74.9839 441.616 73.703C442.173 72.4221 442.897 71.3361 443.788 70.445C444.735 69.4983 445.821 68.7743 447.047 68.2731C448.328 67.7162 449.637 67.4377 450.973 67.4377H503.608V81.4719H455.234V88.9902H497.007V103.024H455.234V111.879H503.608V125.913H451.558C450.054 125.913 448.634 125.635 447.297 125.078C445.961 124.521 444.819 123.797 443.872 122.906C442.925 121.959 442.173 120.873 441.616 119.648C441.059 118.367 440.781 117.059 440.781 115.722V77.8798Z" fill="#E5E1E6"/>
<path d="M212.924 145.966C212.924 144.463 213.203 143.07 213.76 141.789C214.317 140.509 215.041 139.423 215.932 138.532C216.879 137.585 217.965 136.861 219.19 136.36C220.471 135.803 221.78 135.524 223.117 135.524H271.657V149.558H227.378V163.008H264.974V177.042H227.378V194H212.924V145.966Z" fill="#E5E1E6"/>
<path d="M277.033 145.966C277.033 144.463 277.311 143.07 277.868 141.789C278.425 140.509 279.149 139.423 280.041 138.532C280.987 137.585 282.074 136.861 283.299 136.36C284.58 135.803 285.889 135.524 287.226 135.524H339.86V149.558H291.486V157.077H333.26V171.111H291.486V179.966H339.86V194H287.81C286.307 194 284.886 193.721 283.55 193.165C282.213 192.608 281.071 191.884 280.124 190.993C279.177 190.046 278.425 188.96 277.868 187.735C277.311 186.454 277.033 185.145 277.033 183.808V145.966Z" fill="#E5E1E6"/>
<path d="M347.382 179.966H403.274V171.111H357.825C356.321 171.111 354.929 170.833 353.648 170.276C352.367 169.719 351.253 168.995 350.306 168.104C349.415 167.157 348.69 166.071 348.134 164.846C347.632 163.565 347.382 162.256 347.382 160.919V145.966C347.382 144.463 347.66 143.07 348.217 141.789C348.774 140.509 349.498 139.423 350.389 138.532C351.336 137.585 352.422 136.861 353.648 136.36C354.929 135.803 356.237 135.524 357.574 135.524H411.211V149.558H361.835V157.077H407.284C408.788 157.077 410.181 157.355 411.462 157.912C412.743 158.469 413.829 159.221 414.72 160.168C415.667 161.059 416.391 162.145 416.892 163.426C417.449 164.651 417.728 165.932 417.728 167.268V183.558C417.728 185.062 417.449 186.454 416.892 187.735C416.335 189.016 415.583 190.129 414.637 191.076C413.745 191.967 412.659 192.691 411.378 193.248C410.153 193.749 408.872 194 407.535 194H347.382V179.966Z" fill="#E5E1E6"/>
<path d="M445.795 149.558H417.724V135.524H488.153V149.558H460.249V194H445.795V149.558Z" fill="#E5E1E6"/>
<path fill-rule="evenodd" clip-rule="evenodd" d="M512.025 79.1053C512.025 77.3843 512.344 75.7908 512.981 74.3247C513.619 72.8587 514.448 71.6157 515.467 70.5959C516.551 69.5123 517.794 68.6836 519.197 68.11C520.663 67.4726 522.161 67.1538 523.691 67.1538H564.047C565.768 67.1538 567.362 67.4726 568.828 68.11C570.294 68.7474 571.538 69.6079 572.557 70.6915C573.641 71.7114 574.47 72.9543 575.044 74.4203C575.681 75.8226 576 77.2887 576 78.8185L575.906 90.9315C575.906 92.4613 575.587 93.9273 574.95 95.3296C574.5 96.4781 573.894 97.4898 573.132 98.3645C573.177 98.4133 573.221 98.4626 573.265 98.5124C574.101 99.4035 574.713 100.489 575.103 101.77C575.549 102.996 575.772 108.007 575.772 109.344V115.471C575.772 116.975 575.493 118.367 574.936 119.648C574.379 120.929 573.627 122.043 572.68 122.989C571.789 123.88 570.703 124.604 569.422 125.161C568.197 125.663 566.916 125.913 565.579 125.913H552.934V113.788L561.318 113.745V106.327H523.597C522.067 106.327 520.569 106.008 519.103 105.371C517.7 104.797 516.457 103.968 515.373 102.885C514.354 101.865 513.525 100.622 512.887 99.1559C512.25 97.6899 511.931 96.0964 511.931 94.3754L512.025 79.1053ZM559.457 81.7743V91.3355H528.568V81.7743H559.457Z" fill="#E5E1E6"/>
<path d="M526.841 113.788V125.913H511.931V108.192C511.931 108.192 514.727 113.788 522.182 113.788H526.841Z" fill="#E5E1E6"/>
<defs>
<linearGradient id="paint0_linear_3_33" x1="27.4851" y1="27" x2="167.485" y2="167" gradientUnits="userSpaceOnUse">
<stop stop-color="#FFE27D"/>
<stop offset="0.505208" stop-color="#64E3FF"/>
<stop offset="1" stop-color="#9192FF"/>
</linearGradient>
</defs>
</svg>
