<svg width="40" height="40" viewBox="0 0 40 40" fill="none" xmlns="http://www.w3.org/2000/svg">
<path d="M23.3333 11.5H12.8333C11.5447 11.5 10.5 12.5447 10.5 13.8333V24.3333C10.5 25.622 11.5447 26.6667 12.8333 26.6667H23.3333C24.622 26.6667 25.6667 25.622 25.6667 24.3333V13.8333C25.6667 12.5447 24.622 11.5 23.3333 11.5Z" stroke="white" stroke-width="1.5" stroke-linecap="round" stroke-linejoin="round"/>
<path d="M18.8333 4H8.33333C7.04467 4 6 5.04467 6 6.33333V16.8333C6 18.122 7.04467 19.1667 8.33333 19.1667H18.8333C20.122 19.1667 21.1667 18.122 21.1667 16.8333V6.33333C21.1667 5.04467 20.122 4 18.8333 4Z" stroke="white" stroke-width="1.5" stroke-linecap="round" stroke-linejoin="round"/>
<path d="M32.5714 29.7552H31.4286V28.5305C31.4286 27.6853 30.7889 27 30 27C29.2111 27 28.5714 27.6852 28.5714 28.5305V29.7552H27.4286C26.6398 29.7552 26 30.4404 26 31.2857C26 32.131 26.6397 32.8162 27.4286 32.8162H28.5714V34.0409C28.5714 34.8862 29.2111 35.5714 30 35.5714C30.7889 35.5714 31.4286 34.8862 31.4286 34.0409V32.8162H32.5714C33.3602 32.8162 34 32.131 34 31.2857C34 30.4404 33.3602 29.7552 32.5714 29.7552Z" fill="white"/>
</svg>
