<svg width="40" height="40" viewBox="0 0 40 40" fill="none" xmlns="http://www.w3.org/2000/svg">
<path d="M20.0001 26.3977C23.5347 26.3977 26.4001 23.5323 26.4001 19.9977C26.4001 16.463 23.5347 13.5977 20.0001 13.5977C16.4655 13.5977 13.6001 16.463 13.6001 19.9977C13.6001 23.5323 16.4655 26.3977 20.0001 26.3977Z" stroke="white" stroke-width="3" stroke-linecap="round" stroke-linejoin="round"/>
<path d="M26.4 13.599V21.599C26.4 22.872 26.9057 24.0929 27.8059 24.9931C28.7061 25.8933 29.927 26.399 31.2 26.399C32.473 26.399 33.6939 25.8933 34.5941 24.9931C35.4943 24.0929 36 22.872 36 21.599V19.999C35.9998 16.3878 34.778 12.883 32.5332 10.0543C30.2885 7.22554 27.1529 5.23937 23.6362 4.41868C20.1196 3.598 16.4287 3.99107 13.1638 5.53399C9.89883 7.07691 7.25185 9.67893 5.65323 12.917C4.0546 16.155 3.59836 19.8386 4.35868 23.3688C5.11901 26.899 7.05118 30.0682 9.84102 32.361C12.6309 34.6539 16.1143 35.9355 19.7249 35.9976C23.3355 36.0597 26.861 34.8986 29.728 32.703" stroke="white" stroke-width="3" stroke-linecap="round" stroke-linejoin="round"/>
</svg>
