<svg width="40" height="40" viewBox="0 0 40 40" fill="none" xmlns="http://www.w3.org/2000/svg">
<path d="M20.0013 4.16602C28.7445 4.16602 35.8346 10.4645 35.8346 18.2403C35.8334 20.5728 34.9061 22.8095 33.2566 24.4587C31.607 26.108 29.3702 27.0348 27.0376 27.0357H23.9248C22.465 27.0357 21.2854 28.2153 21.2854 29.6751C21.2854 30.3433 21.5498 30.9592 21.9536 31.4168C22.3763 31.8918 22.6407 32.5077 22.6407 33.1933C22.6407 34.6547 21.4263 35.8327 20.0013 35.8327C11.2581 35.8327 4.16797 28.7425 4.16797 19.9994C4.16797 11.2562 11.2581 4.16602 20.0013 4.16602ZM18.1187 29.6751C18.1181 28.9125 18.2678 28.1572 18.5594 27.4525C18.851 26.7478 19.2786 26.1075 19.8179 25.5682C20.3572 25.0289 20.9975 24.6013 21.7022 24.3097C22.4069 24.0181 23.1622 23.8684 23.9248 23.869H27.0376C28.5301 23.8682 29.9612 23.2752 31.0168 22.2201C32.0725 21.1651 32.6663 19.7343 32.668 18.2419C32.668 12.3028 27.0756 7.33268 20.0013 7.33268C16.7326 7.3297 13.5893 8.59042 11.2287 10.8512C8.86796 13.1121 7.47263 16.198 7.33441 19.4637C7.19619 22.7295 8.32578 25.9222 10.487 28.3744C12.6482 30.8267 15.6737 32.3485 18.931 32.6217C18.4008 31.7307 18.1203 30.7135 18.1187 29.6767V29.6751ZM12.8763 19.9994C12.2464 19.9994 11.6423 19.7491 11.1969 19.3037C10.7515 18.8583 10.5013 18.2542 10.5013 17.6244C10.5013 16.9945 10.7515 16.3904 11.1969 15.945C11.6423 15.4996 12.2464 15.2494 12.8763 15.2494C13.5062 15.2494 14.1103 15.4996 14.5557 15.945C15.0011 16.3904 15.2513 16.9945 15.2513 17.6244C15.2513 18.2542 15.0011 18.8583 14.5557 19.3037C14.1103 19.7491 13.5062 19.9994 12.8763 19.9994V19.9994ZM27.1263 19.9994C26.4964 19.9994 25.8923 19.7491 25.4469 19.3037C25.0015 18.8583 24.7513 18.2542 24.7513 17.6244C24.7513 16.9945 25.0015 16.3904 25.4469 15.945C25.8923 15.4996 26.4964 15.2494 27.1263 15.2494C27.7562 15.2494 28.3603 15.4996 28.8057 15.945C29.2511 16.3904 29.5013 16.9945 29.5013 17.6244C29.5013 18.2542 29.2511 18.8583 28.8057 19.3037C28.3603 19.7491 27.7562 19.9994 27.1263 19.9994ZM20.0013 15.2494C19.3714 15.2494 18.7673 14.9991 18.3219 14.5537C17.8765 14.1083 17.6263 13.5042 17.6263 12.8743C17.6263 12.2445 17.8765 11.6404 18.3219 11.195C18.7673 10.7496 19.3714 10.4993 20.0013 10.4993C20.6312 10.4993 21.2353 10.7496 21.6807 11.195C22.1261 11.6404 22.3763 12.2445 22.3763 12.8743C22.3763 13.5042 22.1261 14.1083 21.6807 14.5537C21.2353 14.9991 20.6312 15.2494 20.0013 15.2494Z" fill="white" stroke="white" stroke-width="0.1"/>
</svg>
