<svg width="40" height="40" viewBox="0 0 40 40" fill="none" xmlns="http://www.w3.org/2000/svg">
<path d="M30 16.6667L30 27.7778C30 28.3671 29.7542 28.9324 29.3166 29.3491C28.879 29.7659 28.2855 30 27.6667 30L11.3333 30C10.7145 30 10.121 29.7659 9.68342 29.3491C9.24583 28.9324 9 28.3671 9 27.7778L9 16.6667M30 16.6667L9 16.6667M30 16.6667L30 12.2222C30 11.6329 29.7542 11.0676 29.3166 10.6509C28.879 10.2341 28.2855 10 27.6667 10L11.3333 10C10.7145 10 10.121 10.2341 9.68342 10.6509C9.24583 11.0676 9 11.6329 9 12.2222L9 16.6667M30 16.6667L19.5 16.6667L9 16.6667" stroke="white" stroke-width="2" stroke-linecap="round" stroke-linejoin="round"/>
<path d="M24 18.5908L21.6906 22.5908L26.3094 22.5908L24 18.5908ZM24 30.0454L26.3094 26.0454L21.6906 26.0454L24 30.0454ZM23.6 22.1908L23.6 26.4454L24.4 26.4454L24.4 22.1908L23.6 22.1908Z" fill="white"/>
</svg>
