<svg width="40" height="40" viewBox="0 0 40 40" fill="none" xmlns="http://www.w3.org/2000/svg">
<path d="M32.9093 22.663L32.9092 22.6631L32.9181 22.6726C33.0726 22.839 33.0934 23.1532 32.9146 23.3718C32.9118 23.3747 32.9088 23.3778 32.9055 23.3811C32.6602 23.6308 31.2024 25.1149 28.9521 26.5712C26.5803 28.1061 23.379 29.5765 19.8316 29.5765C16.284 29.5765 13.0753 28.1059 10.6998 26.5709C9.51639 25.8062 8.55149 25.0331 7.86914 24.4358C7.52821 24.1375 7.25865 23.8837 7.0685 23.6979C6.97343 23.6051 6.89846 23.5294 6.84459 23.474C6.81764 23.4462 6.79624 23.4238 6.78043 23.407L6.76153 23.3867L6.75598 23.3807L6.75442 23.379L6.75388 23.3784L6.74903 23.3729L6.74406 23.3676C6.54424 23.1535 6.56451 22.8538 6.72969 22.6886C6.73584 22.6825 6.74519 22.673 6.7577 22.6602C7.00296 22.4106 8.46081 20.9264 10.7111 19.4702C13.0829 17.9353 16.2842 16.4649 19.8316 16.4649C23.3792 16.4649 26.5879 17.9354 28.9634 19.4704C30.1468 20.2351 31.1117 21.0083 31.7941 21.6055C32.135 21.9039 32.4046 22.1576 32.5947 22.3434C32.6898 22.4363 32.7648 22.5119 32.8186 22.5674C32.8456 22.5951 32.867 22.6176 32.8828 22.6344L32.9017 22.6546L32.9072 22.6607L32.9088 22.6624L32.9093 22.663ZM15.9274 19.2503L15.2966 18.2665C12.0772 19.4099 9.53656 21.4468 8.29407 22.5414L7.78302 22.9916L8.29407 23.4418C9.53656 24.5364 12.0772 26.5733 15.2966 27.7167L15.9274 26.7328C14.9849 25.7641 14.4103 24.4582 14.4103 22.9916C14.4103 21.5525 14.986 20.2179 15.9274 19.2503ZM23.7358 26.7619L24.3666 27.7457C27.5862 26.6023 30.1274 24.5654 31.3751 23.4365L31.8734 22.9856L31.3691 22.5414C30.1251 21.4454 27.5546 19.4084 24.3635 18.2945L23.7358 19.2794C24.6783 20.2481 25.2529 21.5541 25.2529 23.0207C25.2529 24.4597 24.6772 25.7944 23.7358 26.7619ZM14.9735 10.6872L14.9735 10.6872L14.9758 10.6959L15.7016 13.425C15.768 13.6988 15.5967 13.9708 15.3519 14.032C15.3296 14.0375 15.3123 14.04 15.2951 14.0413C15.2741 14.0429 15.2526 14.0431 15.2065 14.0431C15.0193 14.0431 14.8118 13.9109 14.7368 13.6656L14.0134 10.9453C13.947 10.6715 14.1183 10.3995 14.3631 10.3384C14.638 10.2696 14.9121 10.4414 14.9735 10.6872ZM9.94067 12.6656L9.94063 12.6657L9.94422 12.6719L11.3383 15.1117C11.472 15.3554 11.3848 15.6456 11.1731 15.7708C11.0621 15.8241 10.9568 15.8467 10.9015 15.8467C10.7317 15.8467 10.5555 15.7524 10.462 15.5954L9.09891 13.1592C9.09879 13.1589 9.09867 13.1587 9.09855 13.1585C8.96117 12.9104 9.05338 12.6135 9.27304 12.4915C9.52124 12.3536 9.81853 12.4458 9.94067 12.6656ZM29.7483 12.6429L29.7483 12.6429L29.7518 12.6366C29.874 12.4168 30.1712 12.3246 30.4194 12.4625C30.6385 12.5842 30.7308 12.8798 30.595 13.1275L29.2036 15.5626C29.2032 15.5633 29.2028 15.5639 29.2024 15.5645C29.1092 15.7226 28.9324 15.8176 28.7619 15.8176C28.6852 15.8176 28.6075 15.799 28.4908 15.742C28.279 15.6173 28.1994 15.3366 28.343 15.1015L28.3476 15.094L28.352 15.0863L29.7483 12.6429ZM24.354 14.041C24.3474 14.0406 24.3426 14.0401 24.3394 14.0397L24.3382 14.0394C24.0472 13.952 23.9006 13.6773 23.9617 13.425L24.6875 10.6959L24.6876 10.6959L24.6897 10.6872C24.7512 10.4414 25.0252 10.2696 25.3002 10.3384C25.545 10.3995 25.7163 10.6715 25.6499 10.9453L24.9241 13.6745L24.9218 13.6828L24.9198 13.6912C24.8712 13.898 24.6903 14.0431 24.4567 14.0431C24.4103 14.0431 24.3803 14.0429 24.354 14.041ZM15.5083 23.0207C15.5083 25.4173 17.4349 27.344 19.8316 27.344C22.2313 27.344 24.1549 25.3852 24.1549 23.0207C24.1549 20.624 22.2283 18.6973 19.8316 18.6973C17.4349 18.6973 15.5083 20.624 15.5083 23.0207ZM19.8209 21.4791C19.8209 21.3732 19.8097 21.2727 19.7894 21.1777C19.8033 21.1775 19.8175 21.1773 19.8317 21.1773C20.8384 21.1773 21.6461 21.985 21.6461 22.9917C21.6461 23.9984 20.8384 24.806 19.8317 24.806C18.825 24.806 18.0174 23.9984 18.0174 22.9917C18.0174 22.9777 18.0176 22.9637 18.018 22.9497C18.1156 22.9701 18.2164 22.9808 18.3191 22.9808C19.145 22.9808 19.8209 22.305 19.8209 21.4791ZM20.3371 12.927C20.3371 13.2064 20.1112 13.4323 19.8317 13.4323C19.5522 13.4323 19.3263 13.2064 19.3263 12.927V10.1054C19.3263 9.82588 19.5522 9.6 19.8317 9.6C20.1112 9.6 20.3371 9.82588 20.3371 10.1054V12.927Z" stroke="white" stroke-width="1.2"/>
</svg>
