<svg width="40" height="40" viewBox="0 0 40 40" fill="none" xmlns="http://www.w3.org/2000/svg">
<path d="M20.5 8V33M20.5 8H31C31.7956 8 32.5587 8.29266 33.1213 8.81359C33.6839 9.33453 34 10.0411 34 10.7778V30.2222C34 30.9589 33.6839 31.6655 33.1213 32.1864C32.5587 32.7073 31.7956 33 31 33H20.5V8ZM20.5 8H10C9.20435 8 8.44129 8.29266 7.87868 8.81359C7.31607 9.33453 7 10.0411 7 10.7778V30.2222C7 30.9589 7.31607 31.6655 7.87868 32.1864C8.44129 32.7073 9.20435 33 10 33H20.5V8Z" stroke="white" stroke-width="3.5" stroke-linecap="round" stroke-linejoin="round"/>
</svg>
