<svg width="40" height="40" viewBox="0 0 40 40" fill="none" xmlns="http://www.w3.org/2000/svg">
<path d="M29.6003 16.4004H18.8014C17.476 16.4004 16.4016 17.4749 16.4016 18.8003V29.6001C16.4016 30.9255 17.476 32 18.8014 32H29.6003C30.9257 32 32.0001 30.9255 32.0001 29.6001V18.8003C32.0001 17.4749 30.9257 16.4004 29.6003 16.4004Z" stroke="white" stroke-width="3" stroke-linecap="round" stroke-linejoin="round"/>
<path d="M11.5996 23.5996H10.3998C9.76331 23.5996 9.15292 23.3468 8.70287 22.8967C8.25283 22.4466 8 21.8362 8 21.1997V10.3999C8 9.76344 8.25283 9.153 8.70287 8.70293C9.15292 8.25285 9.76331 8 10.3998 8H21.1987C21.8352 8 22.4456 8.25285 22.8956 8.70293C23.3456 9.153 23.5985 9.76344 23.5985 10.3999V11.5999" stroke="white" stroke-width="3" stroke-linecap="round" stroke-linejoin="round"/>
</svg>
