<svg width="40" height="40" viewBox="0 0 40 40" fill="none" xmlns="http://www.w3.org/2000/svg">
<path d="M19.5 32C26.3925 32 32 26.3925 32 19.5001C32 12.6075 26.3925 7 19.5 7C12.6075 7 7 12.6075 7 19.4999C7 26.3925 12.6075 32 19.5 32ZM19.5 30.077C16.5783 30.077 13.9299 28.8861 12.0139 26.9645C13.9929 24.98 16.6747 23.8537 19.5 23.8537C22.325 23.8536 25.0072 24.9797 26.9861 26.9643C25.0701 28.8859 22.4217 30.077 19.5 30.077ZM15.6538 18.0844C15.6538 15.9637 17.3789 14.2381 19.5 14.2381C21.6211 14.2381 23.3462 15.9637 23.3462 18.0844C23.3462 20.2052 21.6211 21.9308 19.5 21.9308C17.3789 21.9308 15.6538 20.2052 15.6538 18.0844ZM19.5 8.92297C25.3321 8.92297 30.0767 13.6678 30.0767 19.5001C30.0767 21.7174 29.3897 23.7765 28.219 25.4784C26.7969 24.0929 25.0794 23.0777 23.2094 22.4968C24.4672 21.4378 25.2695 19.8537 25.2695 18.0844C25.2695 14.9031 22.6814 12.3151 19.5 12.3151C16.3186 12.3151 13.7305 14.9031 13.7305 18.0844C13.7305 19.8539 14.5327 21.4378 15.7909 22.497C13.9206 23.0779 12.203 24.093 10.7812 25.4786C9.61027 23.7765 8.92324 21.7174 8.92324 19.4999C8.92327 13.6678 13.6679 8.92297 19.5 8.92297Z" fill="white"/>
<path d="M32.9285 29.9286H32.0715V29.0714C32.0715 28.4797 31.5917 28 31 28C30.4083 28 29.9285 28.4796 29.9285 29.0714V29.9286H29.0715C28.4798 29.9286 28 30.4083 28 31C28 31.5917 28.4798 32.0714 29.0715 32.0714H29.9285V32.9286C29.9285 33.5203 30.4083 34 31 34C31.5917 34 32.0715 33.5204 32.0715 32.9286V32.0714H32.9285C33.5202 32.0714 34 31.5917 34 31C34 30.4083 33.5202 29.9286 32.9285 29.9286Z" fill="white"/>
</svg>
