<svg width="40" height="40" viewBox="0 0 40 40" fill="none" xmlns="http://www.w3.org/2000/svg">
<path d="M8.91846 23.3569C9.33267 23.3569 9.66846 23.0211 9.66846 22.6069C9.66846 22.1927 9.33267 21.8569 8.91846 21.8569V23.3569ZM6.16846 20.7735H5.41846H6.16846ZM8.00179 10.6902V9.94021V10.6902ZM16.2518 10.6902V9.94021V10.6902ZM17.3351 13.4402C17.3351 13.8544 17.6709 14.1902 18.0851 14.1902C18.4993 14.1902 18.8351 13.8544 18.8351 13.4402H17.3351ZM30.0101 9.89838C29.7172 9.60549 29.2423 9.60549 28.9494 9.89838L24.1764 14.6714C23.8835 14.9642 23.8835 15.4391 24.1764 15.732C24.4693 16.0249 24.9442 16.0249 25.2371 15.732L29.4797 11.4894L33.7224 15.732C34.0153 16.0249 34.4901 16.0249 34.783 15.732C35.0759 15.4391 35.0759 14.9642 34.783 14.6714L30.0101 9.89838ZM33.6638 29.8162C33.9567 30.1091 34.4315 30.1091 34.7244 29.8162L39.4974 25.0432C39.7903 24.7504 39.7903 24.2755 39.4974 23.9826C39.2045 23.6897 38.7296 23.6897 38.4367 23.9826L34.1941 28.2252L29.9515 23.9826C29.6586 23.6897 29.1837 23.6897 28.8908 23.9826C28.5979 24.2755 28.5979 24.7504 28.8908 25.0432L33.6638 29.8162ZM14.4202 17.8573H22.6702V16.3573H14.4202V17.8573ZM22.6702 17.8573C23.2686 17.8573 23.7536 18.3423 23.7536 18.9406H25.2536C25.2536 17.5139 24.097 16.3573 22.6702 16.3573V17.8573ZM23.7536 18.9406V27.1906H25.2536V18.9406H23.7536ZM23.7536 27.1906C23.7536 27.7889 23.2686 28.274 22.6702 28.274V29.774C24.097 29.774 25.2536 28.6174 25.2536 27.1906H23.7536ZM22.6702 28.274H14.4202V29.774H22.6702V28.274ZM14.4202 28.274C13.8219 28.274 13.3369 27.7889 13.3369 27.1906H11.8369C11.8369 28.6174 12.9935 29.774 14.4202 29.774V28.274ZM13.3369 27.1906V18.9406H11.8369V27.1906H13.3369ZM13.3369 18.9406C13.3369 18.3423 13.8219 17.8573 14.4202 17.8573V16.3573C12.9935 16.3573 11.8369 17.5139 11.8369 18.9406H13.3369ZM8.91846 21.8569H8.00179V23.3569H8.91846V21.8569ZM8.00179 21.8569C7.71447 21.8569 7.43892 21.7427 7.23576 21.5396L6.1751 22.6002C6.65957 23.0847 7.31665 23.3569 8.00179 23.3569V21.8569ZM7.23576 21.5396C7.03259 21.3364 6.91846 21.0609 6.91846 20.7735H5.41846C5.41846 21.4587 5.69063 22.1158 6.1751 22.6002L7.23576 21.5396ZM6.91846 20.7735V12.5235H5.41846V20.7735H6.91846ZM6.91846 12.5235C6.91846 12.2362 7.03259 11.9607 7.23576 11.7575L6.1751 10.6968C5.69063 11.1813 5.41846 11.8384 5.41846 12.5235H6.91846ZM7.23576 11.7575C7.43892 11.5543 7.71447 11.4402 8.00179 11.4402V9.94021C7.31665 9.94021 6.65957 10.2124 6.1751 10.6968L7.23576 11.7575ZM8.00179 11.4402H16.2518V9.94021H8.00179V11.4402ZM16.2518 11.4402C16.5391 11.4402 16.8147 11.5543 17.0178 11.7575L18.0785 10.6968C17.594 10.2124 16.9369 9.94021 16.2518 9.94021V11.4402ZM17.0178 11.7575C17.221 11.9607 17.3351 12.2362 17.3351 12.5235H18.8351C18.8351 11.8384 18.563 11.1813 18.0785 10.6968L17.0178 11.7575ZM17.3351 12.5235V13.4402H18.8351V12.5235H17.3351ZM30.2297 20.643V10.4287H28.7297V20.643H30.2297ZM33.4441 19.0716L33.4441 29.2859H34.9441L34.9441 19.0716H33.4441Z" fill="white"/>
</svg>
