<svg width="1000" height="1000" viewBox="0 0 1000 1000" fill="none" xmlns="http://www.w3.org/2000/svg">
<g clip-path="url(#clip0)">
<path d="M459.722 930H471.142V927.349H462.884V922.585H470.486V919.935H462.884V915.196H471.074V912.545H459.722V930ZM477.93 930.264C479.984 930.264 481.212 929.301 481.774 928.202H481.876V930H484.842V921.239C484.842 917.778 482.021 916.739 479.524 916.739C476.771 916.739 474.658 917.966 473.976 920.352L476.857 920.761C477.163 919.866 478.033 919.099 479.541 919.099C480.973 919.099 481.757 919.832 481.757 921.119V921.17C481.757 922.057 480.828 922.099 478.518 922.347C475.979 922.619 473.55 923.378 473.55 926.327C473.55 928.901 475.433 930.264 477.93 930.264ZM478.732 927.997C477.445 927.997 476.524 927.409 476.524 926.276C476.524 925.091 477.555 924.597 478.936 924.401C479.746 924.29 481.365 924.085 481.766 923.761V925.304C481.766 926.761 480.589 927.997 478.732 927.997ZM498.291 920.369C497.865 918.153 496.092 916.739 493.024 916.739C489.871 916.739 487.723 918.29 487.732 920.71C487.723 922.619 488.899 923.881 491.413 924.401L493.646 924.869C494.848 925.134 495.411 925.619 495.411 926.361C495.411 927.256 494.439 927.929 492.973 927.929C491.558 927.929 490.638 927.315 490.374 926.139L487.365 926.429C487.749 928.832 489.768 930.256 492.982 930.256C496.254 930.256 498.564 928.56 498.572 926.08C498.564 924.213 497.362 923.071 494.891 922.534L492.658 922.057C491.328 921.759 490.8 921.298 490.808 920.54C490.8 919.653 491.78 919.04 493.067 919.04C494.49 919.04 495.24 919.815 495.479 920.676L498.291 920.369ZM506.912 930.256C509.963 930.256 512.06 928.764 512.605 926.489L509.724 926.165C509.307 927.273 508.284 927.852 506.955 927.852C504.96 927.852 503.639 926.54 503.614 924.298H512.733V923.352C512.733 918.759 509.972 916.739 506.75 916.739C503 916.739 500.554 919.491 500.554 923.531C500.554 927.639 502.966 930.256 506.912 930.256ZM503.622 922.219C503.716 920.548 504.952 919.142 506.793 919.142C508.565 919.142 509.759 920.438 509.776 922.219H503.622ZM527.006 930.256C530.842 930.256 533.279 927.554 533.279 923.506C533.279 919.449 530.842 916.739 527.006 916.739C523.171 916.739 520.734 919.449 520.734 923.506C520.734 927.554 523.171 930.256 527.006 930.256ZM527.023 927.784C524.901 927.784 523.862 925.892 523.862 923.497C523.862 921.102 524.901 919.185 527.023 919.185C529.112 919.185 530.151 921.102 530.151 923.497C530.151 925.892 529.112 927.784 527.023 927.784ZM542.528 916.909H539.81V915.878C539.81 914.855 540.236 914.284 541.386 914.284C541.872 914.284 542.281 914.395 542.537 914.472L543.159 912.085C542.759 911.949 541.881 911.727 540.815 911.727C538.54 911.727 536.724 913.031 536.724 915.673V916.909H534.79V919.295H536.724V930H539.81V919.295H542.528V916.909ZM559.241 924.494C559.241 926.489 557.818 927.477 556.455 927.477C554.972 927.477 553.983 926.429 553.983 924.767V916.909H550.898V925.244C550.898 928.389 552.688 930.17 555.261 930.17C557.222 930.17 558.602 929.139 559.199 927.673H559.335V930H562.327V916.909H559.241V924.494ZM575.846 920.369C575.42 918.153 573.647 916.739 570.579 916.739C567.425 916.739 565.278 918.29 565.286 920.71C565.278 922.619 566.454 923.881 568.968 924.401L571.201 924.869C572.403 925.134 572.965 925.619 572.965 926.361C572.965 927.256 571.994 927.929 570.528 927.929C569.113 927.929 568.192 927.315 567.928 926.139L564.92 926.429C565.303 928.832 567.323 930.256 570.536 930.256C573.809 930.256 576.119 928.56 576.127 926.08C576.119 924.213 574.917 923.071 572.445 922.534L570.212 922.057C568.883 921.759 568.354 921.298 568.363 920.54C568.354 919.653 569.335 919.04 570.621 919.04C572.045 919.04 572.795 919.815 573.033 920.676L575.846 920.369ZM584.467 930.256C587.518 930.256 589.614 928.764 590.16 926.489L587.279 926.165C586.862 927.273 585.839 927.852 584.509 927.852C582.515 927.852 581.194 926.54 581.168 924.298H590.288V923.352C590.288 918.759 587.526 916.739 584.305 916.739C580.555 916.739 578.109 919.491 578.109 923.531C578.109 927.639 580.521 930.256 584.467 930.256ZM581.177 922.219C581.271 920.548 582.506 919.142 584.347 919.142C586.12 919.142 587.313 920.438 587.33 922.219H581.177Z" fill="#805AD5"/>
<path d="M69.9918 151.939C69.406 151.354 68.4563 151.354 67.8705 151.939L58.3246 161.485C57.7388 162.071 57.7388 163.021 58.3246 163.607C58.9103 164.192 59.8601 164.192 60.4459 163.607L68.9312 155.121L77.4164 163.607C78.0022 164.192 78.952 164.192 79.5378 163.607C80.1235 163.021 80.1235 162.071 79.5378 161.485L69.9918 151.939ZM67.4312 153L67.4312 889.264L70.4312 889.264L70.4312 153L67.4312 153Z" fill="#805AD5"/>
<path d="M1001.06 889.326C1001.65 888.741 1001.65 887.791 1001.06 887.205L991.515 877.659C990.929 877.073 989.979 877.073 989.393 877.659C988.808 878.245 988.808 879.195 989.393 879.78L997.879 888.266L989.393 896.751C988.808 897.337 988.808 898.286 989.393 898.872C989.979 899.458 990.929 899.458 991.515 898.872L1001.06 889.326ZM67.9321 889.766L1000 889.766L1000 886.766L67.9321 886.766L67.9321 889.766Z" fill="#805AD5"/>
<path d="M33.2727 668.682C27.6307 668.682 24.3068 672.125 24.3068 676.702C24.3068 681.287 27.6307 684.722 33.2727 684.722C38.9062 684.722 42.2386 681.287 42.2386 676.702C42.2386 675.594 42.0426 674.554 41.6676 673.608L43.5 672.168V669.099L40.3977 671.52C38.8636 669.764 36.4347 668.682 33.2727 668.682ZM36.1364 677.776L39.2386 675.415C39.3494 675.824 39.4006 676.25 39.4006 676.702C39.4006 679.54 37.2443 681.543 33.2727 681.543C29.3011 681.543 27.1449 679.54 27.1449 676.702C27.1449 673.855 29.3011 671.861 33.2727 671.861C35.4205 671.861 37.0312 672.44 38.0625 673.429L36.1364 674.912V677.776ZM36.4943 657.462C38.4886 657.462 39.4773 658.885 39.4773 660.249C39.4773 661.732 38.429 662.72 36.767 662.72H28.9091V665.805H37.2443C40.3892 665.805 42.1705 664.016 42.1705 661.442C42.1705 659.482 41.1392 658.101 39.6733 657.504V657.368H42V654.376H28.9091V657.462H36.4943ZM42.2642 647.437C42.2642 645.383 41.3011 644.156 40.2017 643.593V643.491H42V640.525H33.2386C29.7784 640.525 28.7386 643.346 28.7386 645.843C28.7386 648.596 29.9659 650.71 32.3523 651.391L32.7614 648.511C31.8665 648.204 31.0994 647.335 31.0994 645.826C31.0994 644.394 31.8324 643.61 33.1193 643.61H33.1705C34.0568 643.61 34.0994 644.539 34.3466 646.849C34.6193 649.388 35.3778 651.817 38.3267 651.817C40.9006 651.817 42.2642 649.934 42.2642 647.437ZM39.9972 646.636C39.9972 647.923 39.4091 648.843 38.2756 648.843C37.0909 648.843 36.5966 647.812 36.4006 646.431C36.2898 645.621 36.0852 644.002 35.7614 643.602H37.304C38.7614 643.602 39.9972 644.778 39.9972 646.636ZM24.5455 634.337V637.423H42V634.337H24.5455ZM42 631.165V628.08H28.9091V631.165H42ZM27.0511 629.614C27.0511 628.634 26.3011 627.832 25.3807 627.832C24.4517 627.832 23.7017 628.634 23.7017 629.614C23.7017 630.602 24.4517 631.403 25.3807 631.403C26.3011 631.403 27.0511 630.602 27.0511 629.614ZM28.9091 618.37V620.952H25.7727V624.038H28.9091V625.896H31.2955V624.038H38.5739C41.0369 624.055 42.2472 622.265 42.179 619.947C42.1534 619.069 41.983 618.464 41.8722 618.131L39.4602 618.651C39.5028 618.822 39.5795 619.171 39.5795 619.555C39.5795 620.33 39.3068 620.952 38.0625 620.952H31.2955V618.37H28.9091ZM46.9091 613.872C46.9091 611.469 45.6733 610.08 43.5852 609.338L28.9261 604.08L28.9091 607.378L38.7955 610.403V610.54L28.9091 613.557L28.9091 616.83L42.2727 612.082L42.9801 612.347C44.4716 612.918 44.5739 613.821 44.1818 615.168L46.5852 615.884C46.7557 615.466 46.9091 614.716 46.9091 613.872ZM42.2557 590.275C42.2557 586.44 39.554 584.002 35.5057 584.002C31.4489 584.002 28.7386 586.44 28.7386 590.275C28.7386 594.11 31.4489 596.548 35.5057 596.548C39.554 596.548 42.2557 594.11 42.2557 590.275ZM39.7841 590.258C39.7841 592.38 37.892 593.42 35.4972 593.42C33.1023 593.42 31.1847 592.38 31.1847 590.258C31.1847 588.17 33.1023 587.13 35.4972 587.13C37.892 587.13 39.7841 588.17 39.7841 590.258ZM28.9091 574.753V577.472H27.8778C26.8551 577.472 26.2841 577.045 26.2841 575.895C26.2841 575.409 26.3949 575 26.4716 574.744L24.0852 574.122C23.9489 574.523 23.7273 575.401 23.7273 576.466C23.7273 578.741 25.0313 580.557 27.6733 580.557H28.9091V582.491H31.2955V580.557H42V577.472H31.2955V574.753H28.9091ZM42.2557 560.673C42.2557 557.384 40.304 555.287 37.5256 555.065V558.014C38.9318 558.278 39.7415 559.293 39.7415 560.648C39.7415 562.574 38.1307 563.818 35.4545 563.818C32.8125 563.818 31.2273 562.548 31.2273 560.648C31.2273 559.165 32.1818 558.253 33.4432 558.014V555.065C30.6051 555.278 28.7386 557.494 28.7386 560.69C28.7386 564.526 31.5085 566.946 35.5057 566.946C39.4688 566.946 42.2557 564.585 42.2557 560.673ZM36.4943 544.188C38.4886 544.188 39.4773 545.612 39.4773 546.975C39.4773 548.458 38.429 549.447 36.767 549.447H28.9091V552.532H37.2443C40.3892 552.532 42.1705 550.742 42.1705 548.168C42.1705 546.208 41.1392 544.827 39.6733 544.231V544.094H42V541.103H28.9091L28.9091 544.188H36.4943ZM32.3693 527.584C30.1534 528.01 28.7386 529.783 28.7386 532.851C28.7386 536.004 30.2898 538.152 32.7102 538.143C34.6193 538.152 35.8807 536.976 36.4006 534.462L36.8693 532.229C37.1335 531.027 37.6193 530.464 38.3608 530.464C39.2557 530.464 39.929 531.436 39.929 532.902C39.929 534.317 39.3153 535.237 38.1392 535.501L38.429 538.51C40.8324 538.126 42.2557 536.107 42.2557 532.893C42.2557 529.621 40.5597 527.311 38.0795 527.303C36.2131 527.311 35.071 528.513 34.5341 530.984L34.0568 533.217C33.7585 534.547 33.2983 535.075 32.5398 535.067C31.6534 535.075 31.0398 534.095 31.0398 532.808C31.0398 531.385 31.8153 530.635 32.6761 530.396L32.3693 527.584ZM28.9091 518.222V520.804H25.7727V523.889H28.9091V525.747H31.2955V523.889H38.5739C41.0369 523.906 42.2472 522.116 42.179 519.798C42.1534 518.92 41.983 518.315 41.8722 517.983L39.4602 518.503C39.5028 518.673 39.5795 519.023 39.5795 519.406C39.5795 520.182 39.3068 520.804 38.0625 520.804H31.2955V518.222H28.9091ZM42.2557 510.072C42.2557 506.237 39.554 503.799 35.5057 503.799C31.4489 503.799 28.7386 506.237 28.7386 510.072C28.7386 513.907 31.4489 516.344 35.5057 516.344C39.554 516.344 42.2557 513.907 42.2557 510.072ZM39.7841 510.055C39.7841 512.177 37.892 513.217 35.4972 513.217C33.1023 513.217 31.1847 512.177 31.1847 510.055C31.1847 507.967 33.1023 506.927 35.4972 506.927C37.892 506.927 39.7841 507.967 39.7841 510.055ZM42 501.18V498.095H34.0398C32.429 498.095 31.3381 497.021 31.3381 495.692C31.3381 494.388 32.2159 493.493 33.5625 493.493H42V490.467H33.8352C32.3608 490.467 31.3381 489.589 31.3381 488.098C31.3381 486.854 32.071 485.865 33.6903 485.865H42L42 482.771H33.2131C30.2898 482.771 28.7386 484.459 28.7386 486.862C28.7386 488.763 29.6761 490.212 31.1335 490.791V490.928C29.6506 491.43 28.7386 492.7 28.7386 494.464C28.7386 496.22 29.642 497.533 31.1335 498.078V498.232H28.9091L28.9091 501.18H42ZM42 479.641V476.556H28.9091V479.641H42ZM27.0511 478.09C27.0511 477.11 26.3011 476.309 25.3807 476.309C24.4517 476.309 23.7017 477.11 23.7017 478.09C23.7017 479.079 24.4517 479.88 25.3807 479.88C26.3011 479.88 27.0511 479.079 27.0511 478.09ZM42 473.554V462.807H39.4432V469.455H39.3324L31.0142 463.028H28.9091V473.332H31.4659V466.804H31.5767L40.0398 473.554H42ZM42.2642 456.14C42.2642 454.086 41.3011 452.859 40.2017 452.296V452.194H42V449.228H33.2386C29.7784 449.228 28.7386 452.049 28.7386 454.546C28.7386 457.299 29.9659 459.413 32.3523 460.094L32.7614 457.214C31.8665 456.907 31.0994 456.038 31.0994 454.529C31.0994 453.097 31.8324 452.313 33.1193 452.313H33.1705C34.0568 452.313 34.0994 453.242 34.3466 455.552C34.6193 458.092 35.3778 460.521 38.3267 460.521C40.9006 460.521 42.2642 458.637 42.2642 456.14ZM39.9972 455.339C39.9972 456.626 39.4091 457.546 38.2756 457.546C37.0909 457.546 36.5966 456.515 36.4006 455.134C36.2898 454.325 36.0852 452.705 35.7614 452.305H37.304C38.7614 452.305 39.9972 453.481 39.9972 455.339ZM28.9091 439.589V442.171H25.7727L25.7727 445.256H28.9091L28.9091 447.114H31.2955L31.2955 445.256H38.5739C41.0369 445.273 42.2472 443.484 42.179 441.165C42.1534 440.288 41.983 439.683 41.8722 439.35L39.4602 439.87C39.5028 440.04 39.5795 440.39 39.5795 440.773C39.5795 441.549 39.3068 442.171 38.0625 442.171H31.2955V439.589H28.9091ZM42 437.009V433.923H28.9091V437.009H42ZM27.0511 435.457C27.0511 434.477 26.3011 433.676 25.3807 433.676C24.4517 433.676 23.7017 434.477 23.7017 435.457C23.7017 436.446 24.4517 437.247 25.3807 437.247C26.3011 437.247 27.0511 436.446 27.0511 435.457ZM42.2557 425.04C42.2557 421.205 39.554 418.768 35.5057 418.768C31.4489 418.768 28.7386 421.205 28.7386 425.04C28.7386 428.876 31.4489 431.313 35.5057 431.313C39.554 431.313 42.2557 428.876 42.2557 425.04ZM39.7841 425.023C39.7841 427.146 37.892 428.185 35.4972 428.185C33.1023 428.185 31.1847 427.146 31.1847 425.023C31.1847 422.935 33.1023 421.896 35.4972 421.896C37.892 421.896 39.7841 422.935 39.7841 425.023ZM34.3295 413.064C32.4375 413.064 31.3466 411.922 31.3466 410.294C31.3466 408.7 32.3949 407.746 34.142 407.746H42V404.661H33.6648C30.5284 404.652 28.7386 406.442 28.7386 409.143C28.7386 411.104 29.6761 412.45 31.1335 413.047V413.2H28.9091L28.9091 416.149H42V413.064H34.3295Z" fill="#805AD5"/>
<path d="M170.553 377.798H181.402V375.148H173.715V360.344H170.553V377.798ZM187.044 377.798L188.484 373.494H195.047L196.496 377.798H199.871L193.717 360.344H189.814L183.669 377.798H187.044ZM189.337 370.954L191.698 363.923H191.834L194.195 370.954H189.337ZM199.293 362.994H204.688V377.798H207.825V362.994H213.22V360.344H199.293V362.994ZM215.904 377.798H227.325V375.148H219.066V370.383H226.668V367.733H219.066V362.994H227.256V360.344H215.904V377.798ZM233.124 360.344H229.502L234.948 369.071L229.434 377.798H233.082L236.968 371.449H237.104L240.991 377.798H244.656L239.193 369.071L244.57 360.344H240.965L237.104 366.736H236.968L233.124 360.344ZM253.006 377.798H256.168V371.406H259.389L262.815 377.798H266.344L262.568 370.878C264.622 370.051 265.705 368.295 265.705 365.926C265.705 362.594 263.557 360.344 259.551 360.344H253.006V377.798ZM256.168 368.781V362.986H259.065C261.426 362.986 262.483 364.068 262.483 365.926C262.483 367.784 261.426 368.781 259.082 368.781H256.168ZM274.087 378.054C277.138 378.054 279.234 376.562 279.78 374.287L276.899 373.963C276.482 375.071 275.459 375.65 274.129 375.65C272.135 375.65 270.814 374.338 270.788 372.096H279.908V371.15C279.908 366.557 277.146 364.537 273.925 364.537C270.175 364.537 267.729 367.29 267.729 371.329C267.729 375.437 270.141 378.054 274.087 378.054ZM270.797 370.017C270.891 368.346 272.127 366.94 273.967 366.94C275.74 366.94 276.933 368.236 276.95 370.017H270.797ZM292.864 368.168C292.438 365.952 290.666 364.537 287.597 364.537C284.444 364.537 282.296 366.088 282.305 368.508C282.296 370.418 283.472 371.679 285.987 372.199L288.22 372.668C289.421 372.932 289.984 373.418 289.984 374.159C289.984 375.054 289.012 375.727 287.546 375.727C286.131 375.727 285.211 375.114 284.947 373.937L281.938 374.227C282.322 376.631 284.342 378.054 287.555 378.054C290.828 378.054 293.137 376.358 293.146 373.878C293.137 372.011 291.935 370.869 289.464 370.332L287.231 369.855C285.901 369.557 285.373 369.096 285.381 368.338C285.373 367.452 286.353 366.838 287.64 366.838C289.063 366.838 289.813 367.614 290.052 368.474L292.864 368.168ZM304.033 372.293C304.033 374.287 302.61 375.275 301.247 375.275C299.764 375.275 298.775 374.227 298.775 372.565V364.707H295.69V373.043C295.69 376.187 297.479 377.969 300.053 377.969C302.014 377.969 303.394 376.937 303.991 375.471H304.127V377.798H307.119V364.707H304.033V372.293ZM310.291 377.798H313.377V369.838C313.377 368.227 314.45 367.136 315.78 367.136C317.084 367.136 317.979 368.014 317.979 369.361V377.798H321.004V369.633C321.004 368.159 321.882 367.136 323.374 367.136C324.618 367.136 325.607 367.869 325.607 369.489V377.798H328.7V369.011C328.7 366.088 327.013 364.537 324.609 364.537C322.709 364.537 321.26 365.474 320.68 366.932H320.544C320.041 365.449 318.771 364.537 317.007 364.537C315.252 364.537 313.939 365.44 313.394 366.932H313.24V364.707H310.291V377.798ZM337.626 378.054C340.677 378.054 342.774 376.562 343.319 374.287L340.438 373.963C340.021 375.071 338.998 375.65 337.668 375.65C335.674 375.65 334.353 374.338 334.328 372.096H343.447V371.15C343.447 366.557 340.685 364.537 337.464 364.537C333.714 364.537 331.268 367.29 331.268 371.329C331.268 375.437 333.68 378.054 337.626 378.054ZM334.336 370.017C334.43 368.346 335.666 366.94 337.506 366.94C339.279 366.94 340.472 368.236 340.489 370.017H334.336Z" fill="#805AD5"/>
<path d="M665.978 792.384C671.296 792.384 674.45 789.094 674.45 783.639C674.45 778.202 671.296 774.929 666.097 774.929H660.063V792.384H665.978ZM663.225 789.648V777.665H665.919C669.464 777.665 671.313 779.642 671.313 783.639C671.313 787.653 669.464 789.648 665.825 789.648H663.225ZM683.028 792.639C686.863 792.639 689.301 789.938 689.301 785.889C689.301 781.832 686.863 779.122 683.028 779.122C679.193 779.122 676.755 781.832 676.755 785.889C676.755 789.938 679.193 792.639 683.028 792.639ZM683.045 790.168C680.923 790.168 679.883 788.276 679.883 785.881C679.883 783.486 680.923 781.568 683.045 781.568C685.133 781.568 686.173 783.486 686.173 785.881C686.173 788.276 685.133 790.168 683.045 790.168ZM697.629 792.639C700.919 792.639 703.016 790.688 703.237 787.909H700.289C700.024 789.315 699.01 790.125 697.655 790.125C695.729 790.125 694.485 788.514 694.485 785.838C694.485 783.196 695.754 781.611 697.655 781.611C699.138 781.611 700.05 782.565 700.289 783.827H703.237C703.024 780.989 700.808 779.122 697.612 779.122C693.777 779.122 691.357 781.892 691.357 785.889C691.357 789.852 693.718 792.639 697.629 792.639ZM711.86 792.384H715.022V785.992H718.244L721.67 792.384H725.198L721.423 785.463C723.477 784.636 724.559 782.881 724.559 780.511C724.559 777.179 722.411 774.929 718.406 774.929H711.86V792.384ZM715.022 783.367V777.571H717.92C720.281 777.571 721.338 778.653 721.338 780.511C721.338 782.369 720.281 783.367 717.937 783.367H715.022ZM732.941 792.639C735.992 792.639 738.089 791.148 738.634 788.872L735.754 788.548C735.336 789.656 734.313 790.236 732.984 790.236C730.99 790.236 729.669 788.923 729.643 786.682H738.762V785.736C738.762 781.142 736.001 779.122 732.779 779.122C729.029 779.122 726.583 781.875 726.583 785.915C726.583 790.023 728.995 792.639 732.941 792.639ZM729.651 784.602C729.745 782.932 730.981 781.526 732.822 781.526C734.595 781.526 735.788 782.821 735.805 784.602H729.651ZM751.719 782.753C751.293 780.537 749.52 779.122 746.452 779.122C743.298 779.122 741.151 780.673 741.159 783.094C741.151 785.003 742.327 786.264 744.841 786.784L747.074 787.253C748.276 787.517 748.838 788.003 748.838 788.744C748.838 789.639 747.867 790.313 746.401 790.313C744.986 790.313 744.066 789.699 743.801 788.523L740.793 788.813C741.176 791.216 743.196 792.639 746.409 792.639C749.682 792.639 751.992 790.943 752 788.463C751.992 786.597 750.79 785.455 748.318 784.918L746.085 784.44C744.756 784.142 744.227 783.682 744.236 782.923C744.227 782.037 745.208 781.423 746.494 781.423C747.918 781.423 748.668 782.199 748.906 783.06L751.719 782.753ZM762.888 786.878C762.888 788.872 761.465 789.861 760.101 789.861C758.618 789.861 757.629 788.813 757.629 787.151V779.293H754.544V787.628C754.544 790.773 756.334 792.554 758.908 792.554C760.868 792.554 762.249 791.523 762.845 790.057H762.982V792.384H765.973V779.293H762.888V786.878ZM769.146 792.384H772.231V784.423C772.231 782.813 773.305 781.722 774.634 781.722C775.938 781.722 776.833 782.6 776.833 783.946V792.384H779.859V784.219C779.859 782.744 780.737 781.722 782.228 781.722C783.472 781.722 784.461 782.455 784.461 784.074V792.384H787.555V783.597C787.555 780.673 785.867 779.122 783.464 779.122C781.563 779.122 780.115 780.06 779.535 781.517H779.399C778.896 780.034 777.626 779.122 775.862 779.122C774.106 779.122 772.794 780.026 772.248 781.517H772.095V779.293H769.146V792.384ZM796.48 792.639C799.531 792.639 801.628 791.148 802.173 788.872L799.293 788.548C798.875 789.656 797.852 790.236 796.523 790.236C794.529 790.236 793.208 788.923 793.182 786.682H802.301V785.736C802.301 781.142 799.54 779.122 796.318 779.122C792.568 779.122 790.122 781.875 790.122 785.915C790.122 790.023 792.534 792.639 796.48 792.639ZM793.191 784.602C793.284 782.932 794.52 781.526 796.361 781.526C798.134 781.526 799.327 782.821 799.344 784.602H793.191ZM815.258 782.753C814.832 780.537 813.059 779.122 809.991 779.122C806.838 779.122 804.69 780.673 804.698 783.094C804.69 785.003 805.866 786.264 808.38 786.784L810.613 787.253C811.815 787.517 812.377 788.003 812.377 788.744C812.377 789.639 811.406 790.313 809.94 790.313C808.525 790.313 807.605 789.699 807.34 788.523L804.332 788.813C804.715 791.216 806.735 792.639 809.948 792.639C813.221 792.639 815.531 790.943 815.539 788.463C815.531 786.597 814.329 785.455 811.857 784.918L809.624 784.44C808.295 784.142 807.767 783.682 807.775 782.923C807.767 782.037 808.747 781.423 810.034 781.423C811.457 781.423 812.207 782.199 812.445 783.06L815.258 782.753Z" fill="#805AD5"/>
<path d="M346.895 632.554H351.247V624.746H356.095L359.887 632.554H364.815L360.655 624.01C361.967 623.413 362.933 622.512 363.551 621.306C364.181 620.09 364.495 618.698 364.495 617.13C364.495 615.189 364.021 613.536 363.071 612.17C362.122 610.805 360.613 609.962 358.543 609.642C358.245 609.589 357.903 609.557 357.519 609.546C357.146 609.525 356.847 609.514 356.623 609.514H346.895V632.554ZM351.247 620.682V613.578H356.431C356.655 613.578 356.901 613.589 357.167 613.61C357.434 613.632 357.679 613.674 357.903 613.738C358.49 613.898 358.943 614.17 359.263 614.554C359.583 614.928 359.802 615.349 359.919 615.818C360.047 616.277 360.111 616.714 360.111 617.13C360.111 617.546 360.047 617.989 359.919 618.458C359.802 618.917 359.583 619.338 359.263 619.722C358.943 620.096 358.49 620.362 357.903 620.522C357.679 620.586 357.434 620.629 357.167 620.65C356.901 620.672 356.655 620.682 356.431 620.682H351.247ZM375.085 633.034C376.749 633.034 378.279 632.597 379.677 631.722C381.085 630.848 382.114 629.621 382.765 628.042L378.413 626.794C377.751 628.245 376.557 628.97 374.829 628.97C373.645 628.97 372.711 628.64 372.029 627.978C371.357 627.317 370.941 626.368 370.781 625.13H382.909C383.09 623.04 382.877 621.221 382.269 619.674C381.661 618.128 380.722 616.928 379.453 616.074C378.183 615.221 376.642 614.794 374.829 614.794C373.122 614.794 371.613 615.184 370.301 615.962C368.989 616.73 367.959 617.813 367.213 619.21C366.466 620.608 366.093 622.25 366.093 624.138C366.093 625.866 366.471 627.402 367.229 628.746C367.997 630.08 369.053 631.13 370.397 631.898C371.751 632.656 373.314 633.034 375.085 633.034ZM375.021 618.57C376.066 618.57 376.866 618.832 377.421 619.354C377.986 619.877 378.349 620.725 378.509 621.898H370.893C371.351 619.68 372.727 618.57 375.021 618.57ZM391.994 633.034C394.255 633.034 396.026 632.528 397.306 631.514C398.586 630.501 399.226 629.109 399.226 627.338C399.226 625.994 398.81 624.933 397.978 624.154C397.156 623.376 395.759 622.73 393.786 622.218C392.442 621.877 391.439 621.6 390.778 621.386C390.127 621.173 389.695 620.965 389.482 620.762C389.279 620.56 389.178 620.309 389.178 620.01C389.178 619.509 389.418 619.125 389.898 618.858C390.388 618.592 391.034 618.485 391.834 618.538C393.53 618.666 394.458 619.392 394.618 620.714L399.066 619.914C398.842 618.346 398.074 617.104 396.762 616.186C395.45 615.258 393.775 614.794 391.738 614.794C389.647 614.794 387.978 615.285 386.73 616.266C385.482 617.248 384.858 618.57 384.858 620.234C384.858 621.557 385.29 622.602 386.154 623.37C387.018 624.128 388.506 624.778 390.618 625.322C391.866 625.653 392.783 625.92 393.37 626.122C393.967 626.325 394.351 626.533 394.522 626.746C394.692 626.949 394.778 627.221 394.778 627.562C394.778 628.106 394.564 628.533 394.138 628.842C393.711 629.141 393.103 629.29 392.314 629.29C391.354 629.29 390.559 629.061 389.93 628.602C389.311 628.144 388.911 627.509 388.73 626.698L384.282 627.37C384.57 629.173 385.38 630.57 386.714 631.562C388.058 632.544 389.818 633.034 391.994 633.034ZM407.894 633.066C409.142 633.066 410.23 632.858 411.158 632.442C412.086 632.026 412.864 631.472 413.494 630.778V632.554H417.334V615.274H412.95V624.042C412.95 625.109 412.827 625.973 412.582 626.634C412.347 627.285 412.043 627.781 411.67 628.122C411.296 628.453 410.896 628.677 410.47 628.794C410.043 628.912 409.643 628.97 409.27 628.97C408.342 628.97 407.622 628.762 407.11 628.346C406.608 627.93 406.246 627.413 406.022 626.794C405.798 626.176 405.664 625.562 405.622 624.954C405.579 624.336 405.558 623.829 405.558 623.434V615.274H401.142V624.97C401.142 625.258 401.163 625.717 401.206 626.346C401.248 626.976 401.371 627.674 401.574 628.442C401.776 629.2 402.112 629.93 402.582 630.634C403.062 631.338 403.728 631.92 404.582 632.378C405.435 632.837 406.539 633.066 407.894 633.066ZM420.493 632.554H424.877V622.09C424.877 621.098 425.149 620.293 425.693 619.674C426.248 619.045 426.979 618.73 427.885 618.73C428.835 618.73 429.576 619.05 430.109 619.69C430.653 620.32 430.925 621.205 430.925 622.346V632.554H435.277V622.09C435.277 621.098 435.549 620.293 436.093 619.674C436.648 619.045 437.379 618.73 438.285 618.73C439.235 618.73 439.976 619.05 440.509 619.69C441.053 620.32 441.325 621.205 441.325 622.346V632.554H445.677V621.194C445.677 619.306 445.171 617.781 444.157 616.618C443.155 615.445 441.667 614.858 439.693 614.858C438.584 614.858 437.565 615.098 436.637 615.578C435.709 616.058 434.968 616.714 434.413 617.546C433.965 616.736 433.325 616.085 432.493 615.594C431.661 615.104 430.627 614.858 429.389 614.858C428.344 614.858 427.384 615.066 426.509 615.482C425.635 615.888 424.909 616.448 424.333 617.162V615.274H420.493V632.554ZM448.878 612.874H453.23V609.034H448.878V612.874ZM448.878 632.554H453.23V615.274H448.878V632.554ZM456.715 632.554H461.131V623.786C461.131 622.709 461.248 621.845 461.483 621.194C461.728 620.544 462.037 620.053 462.411 619.722C462.784 619.381 463.184 619.152 463.611 619.034C464.037 618.917 464.437 618.858 464.811 618.858C465.739 618.858 466.453 619.066 466.955 619.482C467.467 619.898 467.835 620.416 468.059 621.034C468.283 621.653 468.416 622.272 468.459 622.89C468.501 623.498 468.523 624 468.523 624.394V632.554H472.939V622.858C472.939 622.57 472.917 622.112 472.875 621.482C472.832 620.853 472.709 620.16 472.507 619.402C472.304 618.634 471.963 617.898 471.483 617.194C471.013 616.49 470.352 615.909 469.499 615.45C468.645 614.992 467.541 614.762 466.187 614.762C464.939 614.762 463.851 614.97 462.923 615.386C461.995 615.802 461.216 616.357 460.587 617.05V615.274H456.715V632.554ZM480.61 633.034C481.944 633.034 483.064 632.832 483.97 632.426C484.888 632.01 485.73 631.349 486.498 630.442V632.554H490.306V621.994C490.306 621.205 490.274 620.49 490.21 619.85C490.146 619.21 489.944 618.57 489.602 617.93C488.994 616.778 488.098 615.968 486.914 615.498C485.73 615.029 484.376 614.794 482.85 614.794C480.77 614.794 479.128 615.242 477.922 616.138C476.717 617.034 475.896 618.197 475.458 619.626L479.394 620.874C479.672 620.085 480.157 619.536 480.85 619.226C481.544 618.917 482.21 618.762 482.85 618.762C483.874 618.762 484.637 618.954 485.138 619.338C485.64 619.712 485.933 620.304 486.018 621.114C484.397 621.349 482.968 621.578 481.73 621.802C480.493 622.016 479.458 622.272 478.626 622.57C477.24 623.082 476.264 623.781 475.698 624.666C475.133 625.541 474.85 626.581 474.85 627.786C474.85 628.746 475.069 629.626 475.506 630.426C475.954 631.216 476.605 631.85 477.458 632.33C478.322 632.8 479.373 633.034 480.61 633.034ZM481.538 629.61C480.792 629.61 480.2 629.445 479.762 629.114C479.325 628.773 479.106 628.309 479.106 627.722C479.106 627.285 479.245 626.912 479.522 626.602C479.8 626.282 480.258 625.994 480.898 625.738C481.389 625.557 481.992 625.392 482.706 625.242C483.432 625.082 484.525 624.88 485.986 624.634C485.976 625.05 485.944 625.509 485.89 626.01C485.837 626.501 485.72 626.933 485.538 627.306C485.421 627.552 485.197 627.856 484.866 628.218C484.546 628.581 484.109 628.906 483.554 629.194C483.01 629.472 482.338 629.61 481.538 629.61ZM503.555 632.554V628.938C502.531 629.077 501.597 629.12 500.755 629.066C499.912 629.013 499.299 628.682 498.915 628.074C498.712 627.754 498.6 627.328 498.579 626.794C498.568 626.25 498.563 625.642 498.563 624.97V618.634H503.555V615.274H498.563V610.474H494.211V615.274H491.267V618.634H494.211V625.226C494.211 626.261 494.221 627.189 494.243 628.01C494.264 628.821 494.488 629.621 494.915 630.41C495.384 631.253 496.067 631.866 496.963 632.25C497.869 632.624 498.893 632.821 500.035 632.842C501.187 632.874 502.36 632.778 503.555 632.554ZM512.933 633.034C514.661 633.034 516.181 632.65 517.493 631.882C518.815 631.104 519.845 630.032 520.581 628.666C521.327 627.29 521.701 625.706 521.701 623.914C521.701 622.133 521.333 620.56 520.597 619.194C519.861 617.818 518.831 616.741 517.509 615.962C516.197 615.184 514.671 614.794 512.933 614.794C511.226 614.794 509.717 615.178 508.405 615.946C507.093 616.714 506.063 617.786 505.317 619.162C504.57 620.528 504.197 622.112 504.197 623.914C504.197 625.696 504.559 627.274 505.285 628.65C506.021 630.016 507.045 631.088 508.357 631.866C509.669 632.645 511.194 633.034 512.933 633.034ZM512.933 628.97C511.578 628.97 510.549 628.517 509.845 627.61C509.151 626.693 508.805 625.461 508.805 623.914C508.805 622.41 509.135 621.194 509.797 620.266C510.469 619.328 511.514 618.858 512.933 618.858C514.309 618.858 515.343 619.317 516.037 620.234C516.741 621.152 517.093 622.378 517.093 623.914C517.093 625.397 516.746 626.613 516.053 627.562C515.37 628.501 514.33 628.97 512.933 628.97ZM523.939 632.554H528.323V623.722C528.323 621.717 529.112 620.352 530.691 619.626C531.203 619.381 531.774 619.237 532.403 619.194C533.043 619.141 533.603 619.189 534.083 619.338V615.274C533.304 615.178 532.526 615.2 531.747 615.338C530.968 615.466 530.264 615.722 529.635 616.106C529.23 616.341 528.872 616.624 528.563 616.954C528.264 617.285 528.003 617.653 527.779 618.058V615.274H523.939V632.554Z" fill="#DC5189"/>
<path d="M955.045 855.623C302.285 853.523 118.335 418.949 75.238 194.314L68.9312 186.966L73.1357 887.114L955.045 890.263V855.623Z" fill="url(#paint0_linear)"/>
<path d="M74.925 193.959C118.037 418.604 302.053 853.198 955.045 855.298" stroke="#805AD5" stroke-width="4"/>
<ellipse cx="141.858" cy="395.757" rx="8.99101" ry="9.99001" fill="#805AD5"/>
<ellipse cx="320.679" cy="639.513" rx="8.99101" ry="9.99001" fill="#DC5189"/>
<circle cx="648.851" cy="817.835" r="9.49051" fill="#805AD5"/>
<line x1="316.331" y1="656.477" x2="316.331" y2="688.112" stroke="#805AD5" stroke-width="2" stroke-linecap="round"/>
<line x1="316.331" y1="706.93" x2="316.331" y2="738.565" stroke="#805AD5" stroke-width="2" stroke-linecap="round"/>
<line x1="316.331" y1="757.383" x2="316.331" y2="789.018" stroke="#805AD5" stroke-width="2" stroke-linecap="round"/>
<line x1="316.331" y1="807.836" x2="316.331" y2="839.471" stroke="#805AD5" stroke-width="2" stroke-linecap="round"/>
<line x1="316.331" y1="858.289" x2="316.331" y2="883.617" stroke="#805AD5" stroke-width="2" stroke-linecap="round"/>
<line x1="70.373" y1="643.966" x2="102.008" y2="643.966" stroke="#805AD5" stroke-width="2" stroke-linecap="round"/>
<line x1="120.826" y1="643.966" x2="152.461" y2="643.966" stroke="#805AD5" stroke-width="2" stroke-linecap="round"/>
<line x1="171.279" y1="643.966" x2="202.914" y2="643.966" stroke="#805AD5" stroke-width="2" stroke-linecap="round"/>
<line x1="221.732" y1="643.966" x2="253.368" y2="643.966" stroke="#805AD5" stroke-width="2" stroke-linecap="round"/>
<line x1="272.185" y1="643.966" x2="303.82" y2="643.966" stroke="#805AD5" stroke-width="2" stroke-linecap="round"/>
</g>
<defs>
<linearGradient id="paint0_linear" x1="955.045" y1="86.1952" x2="250.827" y2="891.224" gradientUnits="userSpaceOnUse">
<stop stop-color="#805AD5"/>
<stop offset="1" stop-color="#805AD5" stop-opacity="0"/>
</linearGradient>
<clipPath id="clip0">
<rect width="1000" height="1000" fill="white"/>
</clipPath>
</defs>
</svg>
